<svg xmlns="http://www.w3.org/2000/svg" viewBox="0 0 28.15 26.08"><defs><style>.cls-1{fill:none;stroke:#020203;stroke-linecap:round;stroke-linejoin:round;stroke-width:1.6px;}</style></defs><title>capital</title><g id="Layer_2" data-name="Layer 2"><g id="Layer_1-2" data-name="Layer 1"><g id="Group_279" data-name="Group 279"><path id="Path_248" data-name="Path 248" class="cls-1" d="M14.08.8a7,7,0,0,1,7,6.92v.06a9.21,9.21,0,0,1-.86,2.85,29.76,29.76,0,0,1-2.16,4c-1.46,2.5-3,5-4,6.56-.87-1.56-2.5-4.06-4-6.56-.78-1.37-1.55-2.75-2.16-4a9.21,9.21,0,0,1-.86-2.85A7,7,0,0,1,14,.8Z"/><path id="Path_249" data-name="Path 249" class="cls-1" d="M14.08,4.51a3,3,0,1,0,3,3h0A3.05,3.05,0,0,0,14.08,4.51Z"/><path id="Path_250" data-name="Path 250" class="cls-1" d="M9.85,19.42H5.63L.8,25.28H27.35l-4.83-5.86H18.39"/></g></g></g></svg>