<svg width="19" height="154" viewBox="0 0 19 154" fill="none" xmlns="http://www.w3.org/2000/svg">
<path d="M15.3683 149.807C15.3683 150.659 15.2123 151.445 14.9003 152.165C14.5763 152.873 14.1203 153.455 13.5323 153.911L11.5883 152.291C12.5123 151.607 12.9743 150.827 12.9743 149.951C12.9743 148.763 12.2783 148.169 10.8863 148.169L4.89234 148.169L4.89234 152.597L2.55234 152.597L2.55234 145.271L10.7243 145.271C12.2723 145.271 13.4363 145.655 14.2163 146.423C14.9843 147.191 15.3683 148.319 15.3683 149.807ZM15.2963 137.981C15.2963 139.001 15.0863 139.919 14.6663 140.735C14.2343 141.539 13.6403 142.169 12.8843 142.625C12.1283 143.081 11.2703 143.309 10.3103 143.309C9.35034 143.309 8.49234 143.081 7.73634 142.625C6.98034 142.169 6.39234 141.539 5.97234 140.735C5.54035 139.919 5.32435 139.001 5.32435 137.981C5.32435 136.961 5.54035 136.049 5.97235 135.245C6.39235 134.441 6.98035 133.811 7.73635 133.355C8.49235 132.899 9.35035 132.671 10.3103 132.671C11.2703 132.671 12.1283 132.899 12.8843 133.355C13.6403 133.811 14.2343 134.441 14.6663 135.245C15.0863 136.049 15.2963 136.961 15.2963 137.981ZM12.9923 137.981C12.9923 137.261 12.7523 136.673 12.2723 136.217C11.7803 135.749 11.1263 135.515 10.3103 135.515C9.49435 135.515 8.84635 135.749 8.36635 136.217C7.87435 136.673 7.62835 137.261 7.62835 137.981C7.62835 138.701 7.87435 139.295 8.36635 139.763C8.84635 140.231 9.49435 140.465 10.3103 140.465C11.1263 140.465 11.7803 140.231 12.2723 139.763C12.7523 139.295 12.9923 138.701 12.9923 137.981ZM5.46835 130.794L5.46835 127.986L15.1523 127.986L15.1523 130.794L5.46835 130.794ZM4.11835 129.39C4.11835 129.906 3.96835 130.326 3.66835 130.65C3.36835 130.974 2.99635 131.136 2.55235 131.136C2.10835 131.136 1.73635 130.974 1.43635 130.65C1.13635 130.326 0.986346 129.906 0.986346 129.39C0.986346 128.874 1.13035 128.454 1.41835 128.13C1.70635 127.806 2.06635 127.644 2.49835 127.644C2.96635 127.644 3.35635 127.806 3.66835 128.13C3.96835 128.454 4.11835 128.874 4.11835 129.39ZM5.32435 119.494C5.32435 118.294 5.68435 117.328 6.40435 116.596C7.12435 115.852 8.19235 115.48 9.60835 115.48L15.1523 115.48L15.1523 118.288L10.0403 118.288C9.27235 118.288 8.70235 118.456 8.33035 118.792C7.94635 119.128 7.75435 119.614 7.75435 120.25C7.75435 120.958 7.97635 121.522 8.42035 121.942C8.85235 122.362 9.50035 122.572 10.3643 122.572L15.1523 122.572L15.1523 125.38L5.46835 125.38L5.46835 122.698L6.60235 122.698C6.19435 122.326 5.88235 121.864 5.66635 121.312C5.43835 120.76 5.32435 120.154 5.32435 119.494ZM14.6844 101.591C14.8884 101.867 15.0444 102.209 15.1524 102.617C15.2484 103.013 15.2964 103.433 15.2964 103.877C15.2964 105.029 15.0024 105.923 14.4143 106.559C13.8263 107.183 12.9623 107.495 11.8223 107.495L7.84435 107.495L7.84435 108.989L5.68435 108.989L5.68435 107.495L3.32635 107.495L3.32635 104.687L5.68435 104.687L5.68435 102.275L7.84435 102.275L7.84435 104.687L11.7864 104.687C12.1943 104.687 12.5124 104.585 12.7404 104.381C12.9564 104.165 13.0644 103.865 13.0644 103.481C13.0644 103.037 12.9444 102.659 12.7044 102.347L14.6844 101.591ZM5.32435 94.1287C5.32435 92.9287 5.68435 91.9627 6.40435 91.2307C7.12435 90.4867 8.19235 90.1147 9.60835 90.1147L15.1524 90.1147L15.1524 92.9227L10.0404 92.9227C9.27235 92.9227 8.70235 93.0907 8.33035 93.4267C7.94635 93.7627 7.75435 94.2487 7.75435 94.8847C7.75435 95.5927 7.97635 96.1567 8.42035 96.5767C8.85235 96.9967 9.50035 97.2067 10.3644 97.2067L15.1524 97.2067L15.1524 100.015L1.79635 100.015L1.79635 97.2067L6.47635 97.2067C6.10435 96.8347 5.82235 96.3847 5.63035 95.8567C5.42635 95.3287 5.32435 94.7527 5.32435 94.1287ZM10.3464 77.9779C10.3824 77.9779 10.6344 77.9959 11.1024 78.0319L11.1024 85.3579C11.7024 85.2259 12.1764 84.9139 12.5244 84.4219C12.8724 83.9299 13.0464 83.3179 13.0464 82.5859C13.0464 82.0819 12.9744 81.6379 12.8304 81.2539C12.6744 80.8579 12.4344 80.4919 12.1104 80.1559L13.7304 78.6619C14.7744 79.5739 15.2964 80.9059 15.2964 82.6579C15.2964 83.7499 15.0864 84.7159 14.6664 85.5559C14.2344 86.3959 13.6404 87.0439 12.8844 87.4999C12.1284 87.9559 11.2704 88.1839 10.3104 88.1839C9.36235 88.1839 8.51035 87.9619 7.75435 87.5179C6.98635 87.0619 6.39235 86.4439 5.97235 85.6639C5.54035 84.8719 5.32435 83.9899 5.32435 83.0179C5.32435 82.0699 5.52835 81.2119 5.93635 80.4439C6.34435 79.6759 6.93235 79.0759 7.70035 78.6439C8.45635 78.1999 9.33835 77.9779 10.3464 77.9779ZM7.44835 82.9999C7.44835 83.6359 7.62835 84.1699 7.98835 84.6019C8.34835 85.0339 8.84035 85.2979 9.46435 85.3939L9.46435 80.6239C8.85235 80.7199 8.36635 80.9839 8.00635 81.4159C7.63435 81.8479 7.44835 82.3759 7.44835 82.9999ZM18.7884 71.7308C18.7884 72.7148 18.6084 73.4648 18.2484 73.9808L16.2144 73.2248C16.4424 72.9008 16.5564 72.5048 16.5564 72.0368C16.5564 71.6768 16.4364 71.3948 16.1964 71.1908C15.9684 70.9868 15.6204 70.8848 15.1524 70.8848L5.46835 70.8848L5.46835 68.0768L15.1344 68.0768C16.2624 68.0768 17.1504 68.4008 17.7984 69.0488C18.4584 69.6848 18.7884 70.5788 18.7884 71.7308ZM4.11835 69.4808C4.11835 69.9968 3.96835 70.4168 3.66835 70.7408C3.36835 71.0648 2.99635 71.2268 2.55235 71.2268C2.10835 71.2268 1.73635 71.0648 1.43635 70.7408C1.13635 70.4168 0.986354 69.9968 0.986354 69.4808C0.986354 68.9648 1.13035 68.5448 1.41835 68.2208C1.70635 67.8968 2.06635 67.7348 2.49835 67.7348C2.96635 67.7348 3.35635 67.8968 3.66835 68.2208C3.96835 68.5448 4.11835 68.9648 4.11835 69.4808ZM15.2964 60.8833C15.2964 61.9033 15.0864 62.8213 14.6664 63.6373C14.2344 64.4413 13.6404 65.0713 12.8844 65.5273C12.1284 65.9833 11.2704 66.2113 10.3104 66.2113C9.35035 66.2113 8.49235 65.9833 7.73635 65.5273C6.98035 65.0713 6.39235 64.4413 5.97235 63.6373C5.54036 62.8213 5.32436 61.9033 5.32436 60.8833C5.32436 59.8633 5.54036 58.9513 5.97236 58.1473C6.39236 57.3433 6.98036 56.7133 7.73636 56.2573C8.49236 55.8013 9.35036 55.5733 10.3104 55.5733C11.2704 55.5733 12.1284 55.8013 12.8844 56.2573C13.6404 56.7133 14.2344 57.3433 14.6664 58.1473C15.0864 58.9513 15.2964 59.8633 15.2964 60.8833ZM12.9924 60.8833C12.9924 60.1633 12.7524 59.5753 12.2724 59.1193C11.7804 58.6513 11.1264 58.4173 10.3104 58.4173C9.49436 58.4173 8.84636 58.6513 8.36636 59.1193C7.87436 59.5753 7.62836 60.1633 7.62836 60.8833C7.62836 61.6033 7.87436 62.1973 8.36636 62.6653C8.84636 63.1333 9.49436 63.3673 10.3104 63.3673C11.1264 63.3673 11.7804 63.1333 12.2724 62.6653C12.7524 62.1973 12.9924 61.6033 12.9924 60.8833ZM5.46836 43.9403L15.1524 43.9403L15.1524 46.6043L14.0004 46.6043C14.4204 46.9763 14.7444 47.4203 14.9724 47.9363C15.1884 48.4523 15.2964 49.0103 15.2964 49.6103C15.2964 50.8823 14.9304 51.8903 14.1984 52.6343C13.4664 53.3783 12.3804 53.7503 10.9404 53.7503L5.46836 53.7503L5.46836 50.9423L10.5264 50.9423C12.0864 50.9423 12.8664 50.2883 12.8664 48.9803C12.8664 48.3083 12.6504 47.7683 12.2184 47.3603C11.7744 46.9523 11.1204 46.7483 10.2564 46.7483L5.46836 46.7483L5.46836 43.9403ZM6.74636 38.6569C6.27836 38.3209 5.92436 37.8709 5.68436 37.3069C5.44436 36.7309 5.32436 36.0709 5.32436 35.3269L7.91636 35.3269C7.89236 35.6389 7.88036 35.8489 7.88036 35.9569C7.88036 36.7609 8.10836 37.3909 8.56436 37.8469C9.00836 38.3029 9.68036 38.5309 10.5804 38.5309L15.1524 38.5309L15.1524 41.3389L5.46836 41.3389L5.46836 38.6569L6.74636 38.6569ZM5.32436 27.7713C5.32436 26.5713 5.68436 25.6053 6.40436 24.8733C7.12436 24.1293 8.19236 23.7573 9.60836 23.7573L15.1524 23.7573L15.1524 26.5653L10.0404 26.5653C9.27236 26.5653 8.70236 26.7333 8.33036 27.0693C7.94636 27.4053 7.75436 27.8913 7.75436 28.5273C7.75436 29.2353 7.97636 29.7993 8.42036 30.2193C8.85236 30.6393 9.50036 30.8493 10.3644 30.8493L15.1524 30.8493L15.1524 33.6573L5.46836 33.6573L5.46836 30.9753L6.60236 30.9753C6.19436 30.6033 5.88236 30.1413 5.66636 29.5893C5.43836 29.0373 5.32436 28.4313 5.32436 27.7713ZM10.3464 11.6205C10.3824 11.6205 10.6344 11.6385 11.1024 11.6745L11.1024 19.0005C11.7024 18.8685 12.1764 18.5565 12.5244 18.0645C12.8724 17.5725 13.0464 16.9605 13.0464 16.2285C13.0464 15.7245 12.9744 15.2805 12.8304 14.8965C12.6744 14.5005 12.4344 14.1345 12.1104 13.7985L13.7304 12.3045C14.7744 13.2165 15.2964 14.5485 15.2964 16.3005C15.2964 17.3925 15.0864 18.3585 14.6664 19.1985C14.2344 20.0385 13.6404 20.6865 12.8844 21.1425C12.1284 21.5985 11.2704 21.8265 10.3104 21.8265C9.36236 21.8265 8.51036 21.6045 7.75436 21.1605C6.98636 20.7045 6.39236 20.0865 5.97236 19.3065C5.54036 18.5145 5.32436 17.6325 5.32436 16.6605C5.32436 15.7125 5.52836 14.8545 5.93636 14.0865C6.34436 13.3185 6.93236 12.7185 7.70036 12.2865C8.45636 11.8425 9.33836 11.6205 10.3464 11.6205ZM7.44836 16.6425C7.44836 17.2785 7.62836 17.8125 7.98836 18.2445C8.34836 18.6765 8.84036 18.9405 9.46436 19.0365L9.46436 14.2665C8.85236 14.3625 8.36636 14.6265 8.00636 15.0585C7.63436 15.4905 7.44836 16.0185 7.44836 16.6425ZM5.46836 0.31481L15.7464 4.68881C16.8624 5.13281 17.6484 5.68481 18.1044 6.34481C18.5604 6.99281 18.7884 7.77881 18.7884 8.70281C18.7884 9.20681 18.7104 9.70481 18.5544 10.1968C18.3984 10.6888 18.1824 11.0908 17.9064 11.4028L15.9084 10.3768C16.1004 10.1608 16.2504 9.91481 16.3584 9.63881C16.4664 9.35081 16.5204 9.06881 16.5204 8.79281C16.5204 8.40881 16.4244 8.09681 16.2324 7.85681C16.0524 7.61681 15.7464 7.40081 15.3144 7.20881L15.2244 7.17281L5.46836 11.3668L5.46836 8.46881L12.0384 5.75081L5.46836 3.01481L5.46836 0.31481Z" fill="white"/>
</svg>
